<?xml version="1.0" encoding="utf-8"?>
<?xml-stylesheet type="text/xsl" href="rss1.xsl"?>
<rss version="2.0" xmlns:atom="http://www.w3.org/2005/Atom" xmlns:content="http://purl.org/rss/1.0/modules/content/" xmlns:dc="http://purl.org/dc/elements/1.1/" xmlns:media="http://search.yahoo.com/mrss/">
<channel>
 <title>Getty</title>
 <link>http://www.gettyimg.com/</link>
 <atom:link href="http://www.gettyimg.com/" rel="self" type="application/rss+xml" />

 
                <item>
                <title><![CDATA[【Music Videos】Céline Dion - My Heart Will Go On (25th Anniversary Alternate Music Video) [4K HEVC 10-bit | DTS-HD MA 5.1 | DD+ Dolby Atmos]]]></title>
                <link><![CDATA[https://sharemania.us/threads/c%C3%A9line-dion-my-heart-will-go-on-25th-anniversary-alternate-music-video-4k-hevc-10-bit-dts-hd-ma-5-1-dd-dolby-atmos.226807/]]></link>
                <description><![CDATA[<article>
<blockquote class="messageText SelectQuoteContainer ugc baseHtml">
<b><b><img src="https://images2.imgbox.com/cf/5e/4zJq14HD_o.jpg" class="bbCodeImage LbImage" alt="[​IMG]" data-url="https://images2.imgbox.com/cf/5e/4zJq14HD_o.jpg" style=""> <br>
<br>
Genre: <span style="color: rgb(0, 89, 179)">Pop, Stage &amp; Screen</span><br>
Style: <span style="color: rgb(0, 89, 179)">Ballad, Score</span><br>
Year: <span style="color: rgb(0, 89, 179)">1997 (4K Remaster: 2023)</span><br>
Video Source: <span style="color: rgb(0, 89, 179)">Apple Music, 2160p, thanks SonMaxime</span><br>
Audio Source: <span style="color: rgb(0, 89, 179)">DVDA MLP 96/24 5.1 &amp; Apple Music, thanks Moi &amp; SonMaxime</span></b></b><br>
<br>
"<b>My Heart Will Go On</b>" is a song recorded by Canadian singer Celine Dion. The song serves as the main soundtrack to James Cameron's blockbuster film Titanic, based on an account of the transatlantic ocean liner of the same name which sank in 1912 after colliding with an iceberg in the North Atlantic Ocean. The song's music was composed by James Horner, its lyrics were written by Will Jennings, while the production was handled by Walter Afanasieff, Horner and Simon Franglen.<br>
<br>
When Jennings writes song for movies, he often looks at a script or sees a rough cut of the film. This wasn't the case with this song, as he drew inspiration from Horner's narrative. Says Jennngs, <i>"I wrote everything from the point of view of a person of a great age looking back so many years. It was the love story that made the film, of course. It was magnificently done with special effects, the actors were good. But the love story was what it was."<br>
</i><br>
"My Heart Will Go On" won the 1998 Grammy Awards for Record Of The Year, Best Female Pop Vocal Performance, Song Of The Year and Best Song for a Motion Picture.<br>
<br>
To Celebrate the 25th anniversary of Celine Dion’s biggest hit of all time, this performance focused music video has been reimagined, featuring remastered footage in stunning clarity. Newly transferred from the original 35mm film reels and assembled in a brand new 4K edit, the video features exclusive, never-before-seen footage from the original ‘My Heart Will Go On’ video shoot from 1997.<br>
<br>
<b>Release Info:</b><br>
The video track is downloaded from apple Music by SonMaxime and left as is.<br>
The DTS-HD MA track is lossless, ripped from a SACD-LAB Demo DVDA (MLP 96/24 5.1).<br>
Synced with Adobe Audition. Encoded to DTS-HD MA with DTS-HD Master Audio Suite.<br>
The Dolby Atmos track is lossy (E-AC3), synced to the video track by muxing.<br>
The timed lyrics are synced &amp; edited. Enable the subtitles to see the lyrics.<br>
<br>
<div class="ToggleTriggerAnchor bbCodeSpoilerContainer">
<button type="button" class="button bbCodeSpoilerButton ToggleTrigger Tooltip JsOnly" data-target="> .SpoilerTarget"><span>Spoiler: <span class="SpoilerTitle">Media Info</span></span></button>
<div class="SpoilerTarget bbCodeSpoilerText">
<div class="bbCodeBlock bbCodeCode">
<div class="type">Code:</div>
<pre>General
Unique ID                      : 74407684449662604622978468309774749635 (0x37FA6614F73C4E22328C5DD29091CFC3)
Complete name                  : Céline Dion - My Heart Will Go On (25th Anniversary Alternate Music Video).mkv
Format                         : Matroska
Format version                 : Version 4 / Version 2
File size                      : 755 MiB
Duration                       : 4 min 41 s
Overall bit rate               : 22.5 Mb/s
Frame rate                     : 24.000 FPS
Encoded date                   : 2023-08-22 16:44:46 UTC
Writing application            : mkvmerge v76.0 ('Celebration') 64-bit
Writing library                : libebml v1.4.4 + libmatroska v1.7.1

Video
ID                             : 1
Format                         : HEVC
Format/Info                    : High Efficiency Video Coding
Format profile                 : Main 10@L5@High
Codec ID                       : V_MPEGH/ISO/HEVC
Duration                       : 4 min 40 s
Bit rate                       : 12.4 Mb/s
Width                          : 3 840 pixels
Height                         : 2 160 pixels
Display aspect ratio           : 16:9
Frame rate mode                : Constant
Frame rate                     : 24.000 FPS
Color space                    : YUV
Chroma subsampling             : 4:2:0
Bit depth                      : 10 bits
Bits/(Pixel*Frame)             : 0.062
Stream size                    : 414 MiB (55%)
Default                        : Yes
Forced                         : No
Color range                    : Limited
Color primaries                : BT.709
Transfer characteristics       : BT.709
Matrix coefficients            : BT.709

Audio #1
ID                             : 2
Format                         : DTS x96 XLL
Format/Info                    : Digital Theater Systems
Commercial name                : DTS-HD Master Audio
Codec ID                       : A_DTS
Duration                       : 4 min 40 s
Bit rate mode                  : Variable / Constant / Constant
Bit rate                       : 9 156 kb/s / 1 509 kb/s / 1 509 kb/s
Channel(s)                     : 6 channels
Channel layout                 : C L R Ls Rs LFE
Sampling rate                  : 96.0 kHz / 96.0 kHz / 48.0 kHz
Frame rate                     : 93.750 FPS (1024 SPF) / 93.750 FPS (1024 SPF) / 93.750 FPS (512 SPF)
Bit depth                      : 24 bits
Compression mode               : Lossless / Lossy / Lossy
Stream size                    : 306 MiB (41%)
Title                          : Lossless 5.1
Language                       : English
Default                        : Yes
Forced                         : No

Audio #2
ID                             : 3
Format                         : E-AC-3 JOC
Format/Info                    : Enhanced AC-3 with Joint Object Coding
Commercial name                : Dolby Digital Plus with Dolby Atmos
Codec ID                       : A_EAC3
Duration                       : 4 min 40 s
Bit rate mode                  : Constant
Bit rate                       : 768 kb/s
Channel(s)                     : 6 channels
Channel layout                 : L R C LFE Ls Rs
Sampling rate                  : 48.0 kHz
Frame rate                     : 31.250 FPS (1536 SPF)
Compression mode               : Lossy
Delay relative to video        : 1 s 100 ms
Stream size                    : 25.6 MiB (3%)
Title                          : Dolby Digital Plus with Dolby Atmos
Language                       : English
Service kind                   : Complete Main
Default                        : No
Forced                         : No
Complexity index               : 16
Number of dynamic objects      : 15
Bed channel count              : 1 channel
Bed channel configuration      : LFE

Audio #3
ID                             : 4
Format                         : AAC LC
Format/Info                    : Advanced Audio Codec Low Complexity
Codec ID                       : A_AAC-2
Duration                       : 4 min 40 s
Bit rate                       : 265 kb/s
Channel(s)                     : 2 channels
Channel layout                 : L R
Sampling rate                  : 48.0 kHz
Frame rate                     : 46.875 FPS (1024 SPF)
Compression mode               : Lossy
Stream size                    : 8.82 MiB (1%)
Language                       : English
Default                        : No
Forced                         : No

Text
ID                             : 5
Format                         : UTF-8
Codec ID                       : S_TEXT/UTF8
Codec ID/Info                  : UTF-8 Plain Text
Duration                       : 3 min 48 s
Bit rate                       : 26 b/s
Frame rate                     : 0.087 FPS
Count of elements              : 20
Stream size                    : 767 Bytes (0%)
Title                          : Lyrics
Language                       : English
Default                        : No
Forced                         : No
</pre>
</div></div>
</div><br>
<div class="bbCodeBlock bbCodeVfcHH HiddenContent">
<div class="attribution type">Hidden Content:</div>
<blockquote>You must reply before you can see the hidden data contained here.</blockquote>
</div>
<div class="messageTextEndMarker">&nbsp;</div>
</blockquote>
</article>]]></description>
                <author><![CDATA[ADHDerby]]></author>
                </item>

                </channel></rss>